<svg width="100" height="511" viewBox="0 0 100 511" fill="none" xmlns="http://www.w3.org/2000/svg">
<path d="M51.5 272.467C66.5417 272.467 78.375 276.488 87 284.53C95.625 292.572 99.9375 303.592 99.9375 317.592C99.9375 331.634 95.5833 342.655 86.875 350.655C78.125 358.655 66.3333 362.655 51.5 362.655C36.5417 362.655 24.7292 358.655 16.0625 350.655C7.35417 342.655 3 331.634 3 317.592C3 303.592 7.33333 292.572 16 284.53C24.625 276.488 36.4583 272.467 51.5 272.467ZM51.4375 296.592C45.8958 296.592 41.1875 297.176 37.3125 298.342C33.3958 299.467 30.1875 300.988 27.6875 302.905C25.1458 304.905 23.3333 307.176 22.25 309.717C21.125 312.217 20.5625 314.822 20.5625 317.53C20.5625 320.405 21.0833 323.009 22.125 325.342C23.125 327.676 24.9375 329.926 27.5625 332.092C29.9792 334.009 33.1875 335.572 37.1875 336.78C41.1875 337.947 45.9583 338.53 51.5 338.53C57.2083 338.53 61.9583 337.967 65.75 336.842C69.5 335.717 72.6458 334.176 75.1875 332.217C77.7708 330.217 79.625 327.947 80.75 325.405C81.8333 322.863 82.375 320.238 82.375 317.53C82.375 314.78 81.7917 312.113 80.625 309.53C79.4167 306.947 77.5625 304.717 75.0625 302.842C72.3542 300.842 69.2083 299.301 65.625 298.217C62 297.134 57.2708 296.592 51.4375 296.592ZM48.5 212.717V214.53C48.2083 215.363 48 216.572 47.875 218.155C47.7083 219.738 47.625 221.488 47.625 223.405C47.625 225.697 47.9583 228.113 48.625 230.655C49.2917 233.155 50.0833 235.592 51 237.967H98L98 259.842H27.8125V237.967H37.875C36.9583 236.967 35.8125 235.592 34.4375 233.842C33.0208 232.051 31.8958 230.426 31.0625 228.967C30.1042 227.384 29.2917 225.551 28.625 223.467C27.9167 221.342 27.5625 219.342 27.5625 217.467C27.5625 216.759 27.5833 215.967 27.625 215.092C27.6667 214.217 27.7292 213.426 27.8125 212.717H48.5ZM98 134.092V160.092L67.4375 179.092L72 182.467H98V204.342H0.75V182.467H55.25L27.8125 161.717V135.905L58.0625 160.467L98 134.092ZM98 62.0299V83.9049H90.25C93.4167 87.6966 95.8333 91.1757 97.5 94.3424C99.125 97.5091 99.9375 101.28 99.9375 105.655C99.9375 112.613 97.75 118.051 93.375 121.967C88.9583 125.842 82.3333 127.78 73.5 127.78H27.8125V105.78H62.625C66.25 105.78 69.2083 105.697 71.5 105.53C73.7917 105.322 75.7292 104.863 77.3125 104.155C78.7708 103.488 79.875 102.467 80.625 101.092C81.375 99.6757 81.75 97.7174 81.75 95.2174C81.75 93.6757 81.375 91.8632 80.625 89.7799C79.875 87.6549 78.8542 85.6966 77.5625 83.9049H27.8125L27.8125 62.0299H98ZM99.375 18.3424C99.375 27.2591 97.5417 33.7591 93.875 37.8424C90.2083 41.8841 84.2083 43.9049 75.875 43.9049H43.0625V52.2799H27.8125V43.9049H7.75V22.0299H27.8125V0.967407H43.0625V22.0299H67.9375C70.3958 22.0299 72.5417 22.0091 74.375 21.9674C76.2083 21.9257 77.8542 21.5924 79.3125 20.9674C80.7708 20.3841 81.9375 19.3632 82.8125 17.9049C83.6458 16.4049 84.0625 14.2382 84.0625 11.4049C84.0625 10.2382 83.8125 8.71741 83.3125 6.84241C82.8125 4.92574 82.3542 3.59241 81.9375 2.84241V0.967407H97.375C98 3.34241 98.4792 5.86324 98.8125 8.52991C99.1875 11.1966 99.375 14.4674 99.375 18.3424Z" fill="white"/>
<path d="M80.5859 478.902C83.8359 478.902 86.75 479.613 89.3281 481.035C91.8906 482.456 93.8594 484.253 95.2344 486.425C96.4062 488.238 97.1641 490.214 97.5078 492.355C97.8359 494.48 98 496.745 98 499.152V510.074H63.1016V499.245C63.1016 496.792 63.2578 494.495 63.5703 492.355C63.8828 490.214 64.6406 488.206 65.8438 486.331C67.3125 484.035 69.2969 482.222 71.7969 480.894C74.2812 479.566 77.2109 478.902 80.5859 478.902ZM80.5156 487.902C78.2188 487.902 76.2578 488.3 74.6328 489.097C72.9922 489.878 71.7109 491.089 70.7891 492.73C70.1328 493.917 69.7734 495.167 69.7109 496.48C69.6484 497.777 69.6172 499.331 69.6172 501.144V501.308H91.4609V501.144C91.4609 499.175 91.4297 497.519 91.3672 496.175C91.2891 494.816 90.8672 493.527 90.1016 492.308C89.1953 490.87 87.9453 489.777 86.3516 489.027C84.7578 488.277 82.8125 487.902 80.5156 487.902ZM98 473.699H63.1016L63.1016 450.097H69.7578V464.98H75.875V451.269H82.5312V464.98H91.3438V450.097H98V473.699ZM63.1016 415.011L98 427.011V436.152L63.1016 448.152V439.058L86.75 431.464L63.1016 423.87V415.011ZM98 404.042V412.245H71.6797V404.042H98ZM67.9297 403.808V412.48H61.5313V403.808H67.9297ZM98 373.105V381.355H84.9453C83.8828 381.355 82.8281 381.402 81.7813 381.495C80.7188 381.574 79.9375 381.73 79.4375 381.964C78.8438 382.245 78.4219 382.652 78.1719 383.183C77.9063 383.714 77.7734 384.425 77.7734 385.316C77.7734 385.988 77.8984 386.667 78.1484 387.355C78.3984 388.042 78.7969 388.777 79.3438 389.558H98V397.761H71.6797V389.558H74.5859C73.4453 388.214 72.5547 386.91 71.9141 385.644C71.2734 384.363 70.9531 382.949 70.9531 381.402C70.9531 378.714 71.8047 376.66 73.5078 375.238C75.1953 373.816 77.6484 373.105 80.8672 373.105H98Z" fill="white"/>
</svg>
