<svg width="227" height="64" viewBox="0 0 227 64" fill="none" xmlns="http://www.w3.org/2000/svg">
<path d="M103.229 33.9297C103.229 40.7454 101.407 46.1074 97.7627 50.0156C94.1188 53.9238 89.125 55.8779 82.7812 55.8779C76.4186 55.8779 71.4248 53.9049 67.7998 49.959C64.1748 45.9941 62.3623 40.651 62.3623 33.9297C62.3623 27.1517 64.1748 21.7992 67.7998 17.8721C71.4248 13.9261 76.4186 11.9531 82.7812 11.9531C89.125 11.9531 94.1188 13.9167 97.7627 17.8438C101.407 21.752 103.229 27.1139 103.229 33.9297ZM92.2969 33.9014C92.2969 31.3903 92.0326 29.2568 91.5039 27.501C90.9941 25.7262 90.305 24.2725 89.4365 23.1396C88.5303 21.988 87.5013 21.1667 86.3496 20.6758C85.2168 20.166 84.0368 19.9111 82.8096 19.9111C81.5068 19.9111 80.3268 20.1471 79.2695 20.6191C78.2122 21.0723 77.1927 21.8936 76.2109 23.083C75.3424 24.1781 74.6344 25.6318 74.0869 27.4443C73.5583 29.2568 73.2939 31.4186 73.2939 33.9297C73.2939 36.5163 73.5488 38.6686 74.0586 40.3867C74.5684 42.0859 75.2669 43.5114 76.1543 44.6631C77.0605 45.8337 78.0895 46.6738 79.2412 47.1836C80.3929 47.6745 81.5824 47.9199 82.8096 47.9199C84.0557 47.9199 85.264 47.6556 86.4346 47.127C87.6051 46.5794 88.6152 45.7393 89.4648 44.6064C90.3711 43.3792 91.0697 41.9538 91.5605 40.3301C92.0514 38.6875 92.2969 36.5446 92.2969 33.9014ZM130.303 32.5703H129.481C129.104 32.4382 128.556 32.3438 127.839 32.2871C127.121 32.2116 126.328 32.1738 125.46 32.1738C124.422 32.1738 123.326 32.3249 122.175 32.627C121.042 32.929 119.938 33.2878 118.861 33.7031V55H108.949V23.1963H118.861V27.7559C119.314 27.3405 119.938 26.8213 120.73 26.1982C121.542 25.5563 122.279 25.0465 122.939 24.6689C123.657 24.2347 124.488 23.8665 125.432 23.5645C126.395 23.2435 127.301 23.083 128.15 23.083C128.471 23.083 128.83 23.0924 129.227 23.1113C129.623 23.1302 129.982 23.1585 130.303 23.1963V32.5703ZM165.93 55H154.148L145.539 41.1514L144.01 43.2188V55H134.098V10.9336H144.01V35.6289L153.412 23.1963H165.108L153.979 36.9033L165.93 55ZM198.583 55H188.671V51.4883C186.953 52.9232 185.376 54.0182 183.941 54.7734C182.507 55.5098 180.798 55.8779 178.815 55.8779C175.662 55.8779 173.199 54.8867 171.424 52.9043C169.668 50.903 168.79 47.901 168.79 43.8984V23.1963H178.759V38.9707C178.759 40.6133 178.797 41.9538 178.872 42.9922C178.966 44.0306 179.174 44.9085 179.495 45.626C179.797 46.2868 180.26 46.7871 180.883 47.127C181.525 47.4668 182.412 47.6367 183.545 47.6367C184.243 47.6367 185.065 47.4668 186.009 47.127C186.972 46.7871 187.859 46.3245 188.671 45.7393V23.1963H198.583V55ZM218.379 55.623C214.339 55.623 211.393 54.7923 209.543 53.1309C207.712 51.4694 206.796 48.7507 206.796 44.9746V30.1064H203.001V23.1963H206.796V14.1055H216.708V23.1963H226.252V30.1064H216.708V41.3779C216.708 42.4919 216.717 43.4642 216.736 44.2949C216.755 45.1257 216.906 45.8714 217.189 46.5322C217.454 47.193 217.916 47.7217 218.577 48.1182C219.257 48.4958 220.239 48.6846 221.522 48.6846C222.051 48.6846 222.74 48.5713 223.59 48.3447C224.458 48.1182 225.062 47.9105 225.402 47.7217H226.252V54.7168C225.176 55 224.034 55.2171 222.825 55.3682C221.617 55.5381 220.135 55.623 218.379 55.623Z" fill="#E01C8B"/>
<path d="M67.7998 49.959L66.3237 51.3085L66.327 51.312L67.7998 49.959ZM67.7998 17.8721L69.2694 19.2286L69.2726 19.2251L67.7998 17.8721ZM97.7627 17.8438L96.2966 19.2041L96.2999 19.2076L97.7627 17.8438ZM91.5039 27.501L89.5816 28.0531L89.5851 28.0654L89.5888 28.0776L91.5039 27.501ZM89.4365 23.1396L91.0237 21.9228L91.0161 21.9128L91.0083 21.9029L89.4365 23.1396ZM86.3496 20.6758L85.5289 22.4996L85.5471 22.5078L85.5654 22.5156L86.3496 20.6758ZM79.2695 20.6191L80.0574 22.4574L80.0711 22.4515L80.0848 22.4454L79.2695 20.6191ZM76.2109 23.083L74.6685 21.8099L74.6561 21.8249L74.6439 21.8402L76.2109 23.083ZM74.0869 27.4443L72.1724 26.866L72.1696 26.8751L72.1669 26.8843L74.0869 27.4443ZM74.0586 40.3867L72.1412 40.9556L72.1429 40.9614L74.0586 40.3867ZM76.1543 44.6631L74.57 45.8838L74.5728 45.8874L76.1543 44.6631ZM79.2412 47.1836L78.4317 49.0125L78.4443 49.018L78.457 49.0234L79.2412 47.1836ZM86.4346 47.127L87.2577 48.9497L87.2699 48.9442L87.2819 48.9386L86.4346 47.127ZM89.4648 44.6064L91.0648 45.8064L91.0693 45.8005L91.0737 45.7945L89.4648 44.6064ZM91.5605 40.3301L93.475 40.9089L93.4768 40.9028L91.5605 40.3301ZM101.229 33.9297C101.229 40.384 99.5111 45.2076 96.2999 48.6517L99.2255 51.3795C103.302 47.0072 105.229 41.1069 105.229 33.9297H101.229ZM96.2999 48.6517C93.1049 52.0785 88.6831 53.8779 82.7812 53.8779V57.8779C89.5669 57.8779 95.1327 55.7692 99.2255 51.3795L96.2999 48.6517ZM82.7812 53.8779C76.8642 53.8779 72.448 52.0624 69.2726 48.6059L66.327 51.312C70.4017 55.7475 75.973 57.8779 82.7812 57.8779V53.8779ZM69.2759 48.6094C66.0668 45.0995 64.3623 40.2822 64.3623 33.9297H60.3623C60.3623 41.0198 62.2828 46.8888 66.3237 51.3085L69.2759 48.6094ZM64.3623 33.9297C64.3623 27.5144 66.0698 22.6948 69.2694 19.2286L66.3302 16.5155C62.2798 20.9035 60.3623 26.789 60.3623 33.9297H64.3623ZM69.2726 19.2251C72.448 15.7687 76.8642 13.9531 82.7812 13.9531V9.95312C75.973 9.95312 70.4017 12.0836 66.327 16.519L69.2726 19.2251ZM82.7812 13.9531C88.6801 13.9531 93.1009 15.76 96.2966 19.2041L99.2288 16.4834C95.1368 12.0733 89.5699 9.95312 82.7812 9.95312V13.9531ZM96.2999 19.2076C99.5111 22.6518 101.229 27.4754 101.229 33.9297H105.229C105.229 26.7525 103.302 20.8522 99.2255 16.4799L96.2999 19.2076ZM94.2969 33.9014C94.2969 31.2617 94.0204 28.9219 93.419 26.9244L89.5888 28.0776C90.0447 29.5918 90.2969 31.5189 90.2969 33.9014H94.2969ZM93.4262 26.9488C92.8666 25.0008 92.082 23.3031 91.0237 21.9228L87.8493 24.3565C88.528 25.2418 89.1216 26.4517 89.5816 28.0531L93.4262 26.9488ZM91.0083 21.9029C89.9299 20.5324 88.6434 19.4794 87.1338 18.8359L85.5654 22.5156C86.3592 22.854 87.1307 23.4435 87.8648 24.3764L91.0083 21.9029ZM87.1703 18.8519C85.7827 18.2275 84.3233 17.9111 82.8096 17.9111V21.9111C83.7503 21.9111 84.6508 22.1045 85.5289 22.4996L87.1703 18.8519ZM82.8096 17.9111C81.2611 17.9111 79.7984 18.1928 78.4542 18.7929L80.0848 22.4454C80.8553 22.1015 81.7526 21.9111 82.8096 21.9111V17.9111ZM78.4817 18.7809C77.0489 19.3949 75.787 20.4547 74.6685 21.8099L77.7534 24.3561C78.5984 23.3324 79.3756 22.7496 80.0574 22.4574L78.4817 18.7809ZM74.6439 21.8402C73.5739 23.1894 72.7686 24.8924 72.1724 26.866L76.0015 28.0227C76.5003 26.3713 77.111 25.1667 77.7779 24.3258L74.6439 21.8402ZM72.1669 26.8843C71.571 28.9274 71.2939 31.2875 71.2939 33.9297H75.2939C75.2939 31.5498 75.5455 29.5863 76.0069 28.0043L72.1669 26.8843ZM71.2939 33.9297C71.2939 36.6315 71.5583 38.991 72.1412 40.9556L75.976 39.8178C75.5394 38.3463 75.2939 36.4011 75.2939 33.9297H71.2939ZM72.1429 40.9614C72.7079 42.8445 73.5049 44.5014 74.57 45.8838L77.7386 43.4424C77.0289 42.5214 76.4289 41.3274 75.9742 39.812L72.1429 40.9614ZM74.5728 45.8874C75.6466 47.2743 76.9273 48.3466 78.4317 49.0125L80.0507 45.3547C79.2517 45.0011 78.4745 44.393 77.7357 43.4387L74.5728 45.8874ZM78.457 49.0234C79.8515 49.6178 81.3073 49.9199 82.8096 49.9199V45.9199C81.8574 45.9199 80.9343 45.7311 80.0254 45.3437L78.457 49.0234ZM82.8096 49.9199C84.3484 49.9199 85.8366 49.5915 87.2577 48.9497L85.6114 45.3042C84.6914 45.7197 83.763 45.9199 82.8096 45.9199V49.9199ZM87.2819 48.9386C88.7775 48.239 90.0376 47.1761 91.0648 45.8064L87.8648 43.4064C87.1929 44.3024 86.4327 44.9198 85.5872 45.3153L87.2819 48.9386ZM91.0737 45.7945C92.1303 44.3638 92.9252 42.7273 93.475 40.9089L89.6461 39.7513C89.2141 41.1803 88.6119 42.3947 87.856 43.4184L91.0737 45.7945ZM93.4768 40.9028C94.0447 39.0025 94.2969 36.6456 94.2969 33.9014H90.2969C90.2969 36.4436 90.0582 38.3725 89.6443 39.7574L93.4768 40.9028ZM130.303 32.5703V34.5703H132.303V32.5703H130.303ZM129.481 32.5703L128.821 34.458L129.142 34.5703H129.481V32.5703ZM127.839 32.2871L127.63 34.2761L127.655 34.2789L127.681 34.2809L127.839 32.2871ZM122.175 32.627L121.667 30.6924L121.659 30.6945L122.175 32.627ZM118.861 33.7031L118.141 31.8373L116.861 32.3313V33.7031H118.861ZM118.861 55V57H120.861V55H118.861ZM108.949 55H106.949V57H108.949V55ZM108.949 23.1963V21.1963H106.949V23.1963H108.949ZM118.861 23.1963H120.861V21.1963H118.861V23.1963ZM118.861 27.7559H116.861V32.3023L120.213 29.2302L118.861 27.7559ZM120.73 26.1982L121.966 27.7709L121.971 27.7671L120.73 26.1982ZM122.939 24.6689L123.932 26.4054L123.954 26.393L123.975 26.3799L122.939 24.6689ZM125.432 23.5645L126.041 25.4693L126.053 25.4656L126.064 25.4618L125.432 23.5645ZM130.303 23.1963H132.303V21.4178L130.536 21.21L130.303 23.1963ZM130.303 30.5703H129.481V34.5703H130.303V30.5703ZM130.142 30.6826C129.522 30.4654 128.772 30.3546 127.996 30.2933L127.681 34.2809C128.341 34.3329 128.686 34.4109 128.821 34.458L130.142 30.6826ZM128.048 30.2981C127.249 30.214 126.385 30.1738 125.46 30.1738V34.1738C126.272 34.1738 126.994 34.2092 127.63 34.2761L128.048 30.2981ZM125.46 30.1738C124.227 30.1738 122.961 30.3531 121.667 30.6924L122.682 34.5615C123.692 34.2967 124.616 34.1738 125.46 34.1738V30.1738ZM121.659 30.6945C120.458 31.0148 119.285 31.3956 118.141 31.8373L119.581 35.569C120.59 35.1799 121.626 34.8433 122.69 34.5594L121.659 30.6945ZM116.861 33.7031V55H120.861V33.7031H116.861ZM118.861 53H108.949V57H118.861V53ZM110.949 55V23.1963H106.949V55H110.949ZM108.949 25.1963H118.861V21.1963H108.949V25.1963ZM116.861 23.1963V27.7559H120.861V23.1963H116.861ZM120.213 29.2302C120.613 28.8636 121.191 28.3797 121.966 27.7709L119.495 24.6256C118.684 25.2629 118.016 25.8173 117.51 26.2816L120.213 29.2302ZM121.971 27.7671C122.73 27.1667 123.382 26.7194 123.932 26.4054L121.947 22.9325C121.175 23.3737 120.354 23.9459 119.49 24.6294L121.971 27.7671ZM123.975 26.3799C124.537 26.0399 125.22 25.732 126.041 25.4693L124.822 21.6596C123.755 22.001 122.777 22.4295 121.904 22.9579L123.975 26.3799ZM126.064 25.4618C126.862 25.196 127.553 25.083 128.15 25.083V21.083C127.049 21.083 125.927 21.291 124.799 21.6671L126.064 25.4618ZM128.15 25.083C128.433 25.083 128.76 25.0914 129.131 25.1091L129.322 21.1136C128.901 21.0935 128.509 21.083 128.15 21.083V25.083ZM129.131 25.1091C129.492 25.1262 129.803 25.1513 130.069 25.1826L130.536 21.21C130.16 21.1658 129.755 21.1342 129.322 21.1136L129.131 25.1091ZM128.303 23.1963V32.5703H132.303V23.1963H128.303ZM165.93 55V57H169.647L167.599 53.8978L165.93 55ZM154.148 55L152.45 56.0559L153.037 57H154.148V55ZM145.539 41.1514L147.238 40.0954L145.683 37.5942L143.931 39.962L145.539 41.1514ZM144.01 43.2188L142.402 42.0294L142.01 42.5594V43.2188H144.01ZM144.01 55V57H146.01V55H144.01ZM134.098 55H132.098V57H134.098V55ZM134.098 10.9336V8.93359H132.098V10.9336H134.098ZM144.01 10.9336H146.01V8.93359H144.01V10.9336ZM144.01 35.6289H142.01V41.5892L145.605 36.8353L144.01 35.6289ZM153.412 23.1963V21.1963H152.417L151.817 21.9899L153.412 23.1963ZM165.108 23.1963L166.661 24.457L169.309 21.1963H165.108V23.1963ZM153.979 36.9033L152.426 35.6426L151.501 36.7814L152.31 38.0055L153.979 36.9033ZM165.93 53H154.148V57H165.93V53ZM155.847 53.9441L147.238 40.0954L143.841 42.2073L152.45 56.0559L155.847 53.9441ZM143.931 39.962L142.402 42.0294L145.618 44.4081L147.147 42.3408L143.931 39.962ZM142.01 43.2188V55H146.01V43.2188H142.01ZM144.01 53H134.098V57H144.01V53ZM136.098 55V10.9336H132.098V55H136.098ZM134.098 12.9336H144.01V8.93359H134.098V12.9336ZM142.01 10.9336V35.6289H146.01V10.9336H142.01ZM145.605 36.8353L155.007 24.4027L151.817 21.9899L142.415 34.4225L145.605 36.8353ZM153.412 25.1963H165.108V21.1963H153.412V25.1963ZM163.556 21.9356L152.426 35.6426L155.531 38.164L166.661 24.457L163.556 21.9356ZM152.31 38.0055L164.261 56.1022L167.599 53.8978L155.647 35.8012L152.31 38.0055ZM198.583 55V57H200.583V55H198.583ZM188.671 55H186.671V57H188.671V55ZM188.671 51.4883H190.671V47.2122L187.389 49.9532L188.671 51.4883ZM183.941 54.7734L184.855 56.5528L184.864 56.5481L184.873 56.5433L183.941 54.7734ZM171.424 52.9043L169.92 54.2233L169.927 54.2308L169.934 54.2383L171.424 52.9043ZM168.79 23.1963V21.1963H166.79V23.1963H168.79ZM178.759 23.1963H180.759V21.1963H178.759V23.1963ZM178.872 42.9922L176.877 43.1373L176.879 43.1553L176.88 43.1733L178.872 42.9922ZM179.495 45.626L177.669 46.4427L177.673 46.4501L177.676 46.4575L179.495 45.626ZM180.883 47.127L179.925 48.8827L179.936 48.8887L179.947 48.8945L180.883 47.127ZM186.009 47.127L185.343 45.2409L185.331 45.2452L186.009 47.127ZM188.671 45.7393L189.84 47.3616L190.671 46.763V45.7393H188.671ZM188.671 23.1963V21.1963H186.671V23.1963H188.671ZM198.583 23.1963H200.583V21.1963H198.583V23.1963ZM198.583 53H188.671V57H198.583V53ZM190.671 55V51.4883H186.671V55H190.671ZM187.389 49.9532C185.741 51.3292 184.283 52.3336 183.01 53.0036L184.873 56.5433C186.47 55.7029 188.164 54.5172 189.953 53.0233L187.389 49.9532ZM183.028 52.994C181.933 53.5559 180.552 53.8779 178.815 53.8779V57.8779C181.044 57.8779 183.08 57.4636 184.855 56.5528L183.028 52.994ZM178.815 53.8779C176.116 53.8779 174.239 53.0501 172.914 51.5703L169.934 54.2383C172.158 56.7233 175.209 57.8779 178.815 57.8779V53.8779ZM172.927 51.5853C171.619 50.0943 170.79 47.6524 170.79 43.8984H166.79C166.79 48.1497 167.717 51.7117 169.92 54.2233L172.927 51.5853ZM170.79 43.8984V23.1963H166.79V43.8984H170.79ZM168.79 25.1963H178.759V21.1963H168.79V25.1963ZM176.759 23.1963V38.9707H180.759V23.1963H176.759ZM176.759 38.9707C176.759 40.6375 176.797 42.0313 176.877 43.1373L180.867 42.8471C180.796 41.8762 180.759 40.589 180.759 38.9707H176.759ZM176.88 43.1733C176.989 44.3639 177.234 45.4704 177.669 46.4427L181.321 44.8092C181.114 44.3467 180.944 43.6973 180.864 42.8111L176.88 43.1733ZM177.676 46.4575C178.153 47.5013 178.913 48.3307 179.925 48.8827L181.841 45.3712C181.606 45.2435 181.441 45.0723 181.314 44.7945L177.676 46.4575ZM179.947 48.8945C180.995 49.4491 182.251 49.6367 183.545 49.6367V45.6367C182.573 45.6367 182.055 45.4845 181.819 45.3594L179.947 48.8945ZM183.545 49.6367C184.551 49.6367 185.612 49.3956 186.686 49.0087L185.331 45.2452C184.518 45.538 183.936 45.6367 183.545 45.6367V49.6367ZM186.674 49.0129C187.813 48.611 188.871 48.0606 189.84 47.3616L187.501 44.1169C186.847 44.5885 186.13 44.9632 185.343 45.241L186.674 49.0129ZM190.671 45.7393V23.1963H186.671V45.7393H190.671ZM188.671 25.1963H198.583V21.1963H188.671V25.1963ZM196.583 23.1963V55H200.583V23.1963H196.583ZM209.543 53.1309L208.199 54.6121L208.207 54.619L209.543 53.1309ZM206.796 30.1064H208.796V28.1064H206.796V30.1064ZM203.001 30.1064H201.001V32.1064H203.001V30.1064ZM203.001 23.1963V21.1963H201.001V23.1963H203.001ZM206.796 23.1963V25.1963H208.796V23.1963H206.796ZM206.796 14.1055V12.1055H204.796V14.1055H206.796ZM216.708 14.1055H218.708V12.1055H216.708V14.1055ZM216.708 23.1963H214.708V25.1963H216.708V23.1963ZM226.252 23.1963H228.252V21.1963H226.252V23.1963ZM226.252 30.1064V32.1064H228.252V30.1064H226.252ZM216.708 30.1064V28.1064H214.708V30.1064H216.708ZM217.189 46.5322L219.046 45.7894L219.037 45.7668L219.028 45.7444L217.189 46.5322ZM218.577 48.1182L217.548 49.8331L217.577 49.8503L217.606 49.8665L218.577 48.1182ZM223.59 48.3447L223.085 46.4095L223.075 46.4123L223.59 48.3447ZM225.402 47.7217V45.7217H224.884L224.431 45.9734L225.402 47.7217ZM226.252 47.7217H228.252V45.7217H226.252V47.7217ZM226.252 54.7168L226.761 56.6509L228.252 56.2586V54.7168H226.252ZM222.825 55.3682L222.577 53.3836L222.562 53.3855L222.547 53.3876L222.825 55.3682ZM218.379 53.623C214.542 53.623 212.192 52.822 210.879 51.6428L208.207 54.619C210.594 56.7627 214.135 57.623 218.379 57.623V53.623ZM210.887 51.6496C209.651 50.5288 208.796 48.4827 208.796 44.9746H204.796C204.796 49.0186 205.772 52.41 208.199 54.6121L210.887 51.6496ZM208.796 44.9746V30.1064H204.796V44.9746H208.796ZM206.796 28.1064H203.001V32.1064H206.796V28.1064ZM205.001 30.1064V23.1963H201.001V30.1064H205.001ZM203.001 25.1963H206.796V21.1963H203.001V25.1963ZM208.796 23.1963V14.1055H204.796V23.1963H208.796ZM206.796 16.1055H216.708V12.1055H206.796V16.1055ZM214.708 14.1055V23.1963H218.708V14.1055H214.708ZM216.708 25.1963H226.252V21.1963H216.708V25.1963ZM224.252 23.1963V30.1064H228.252V23.1963H224.252ZM226.252 28.1064H216.708V32.1064H226.252V28.1064ZM214.708 30.1064V41.3779H218.708V30.1064H214.708ZM214.708 41.3779C214.708 42.5023 214.718 43.4904 214.737 44.3404L218.736 44.2495C218.717 43.438 218.708 42.4814 218.708 41.3779H214.708ZM214.737 44.3404C214.761 45.3873 214.953 46.3907 215.351 47.3201L219.028 45.7444C218.86 45.3521 218.75 44.864 218.736 44.2495L214.737 44.3404ZM215.333 47.275C215.773 48.3759 216.545 49.2315 217.548 49.8331L219.606 46.4032C219.287 46.2118 219.135 46.0101 219.046 45.7894L215.333 47.275ZM217.606 49.8665C218.717 50.4837 220.095 50.6846 221.522 50.6846V46.6846C220.382 46.6846 219.797 46.5078 219.548 46.3699L217.606 49.8665ZM221.522 50.6846C222.302 50.6846 223.183 50.5232 224.105 50.2772L223.075 46.4123C222.298 46.6194 221.8 46.6846 221.522 46.6846V50.6846ZM224.095 50.28C224.97 50.0516 225.792 49.7929 226.374 49.47L224.431 45.9734C224.333 46.0281 223.947 46.1847 223.085 46.4095L224.095 50.28ZM225.402 49.7217H226.252V45.7217H225.402V49.7217ZM224.252 47.7217V54.7168H228.252V47.7217H224.252ZM225.743 52.7826C224.76 53.0413 223.706 53.2425 222.577 53.3836L223.073 57.3527C224.361 57.1917 225.591 56.9587 226.761 56.6509L225.743 52.7826ZM222.547 53.3876C221.461 53.5403 220.078 53.623 218.379 53.623V57.623C220.191 57.623 221.773 57.5358 223.104 57.3487L222.547 53.3876Z" fill="white"/>
<path d="M14.5898 47.7441C14.5898 49.0983 14.2936 50.3125 13.7012 51.3867C13.1087 52.4544 12.36 53.2747 11.4551 53.8477C10.6999 54.3359 9.8763 54.6517 8.98438 54.7949C8.09896 54.9316 7.15495 55 6.15234 55H1.60156V40.459H6.11328C7.13542 40.459 8.09245 40.5241 8.98438 40.6543C9.8763 40.7845 10.7129 41.1003 11.4941 41.6016C12.4512 42.2135 13.2064 43.0404 13.7598 44.082C14.3132 45.1172 14.5898 46.3379 14.5898 47.7441ZM10.8398 47.7148C10.8398 46.7578 10.6738 45.9408 10.3418 45.2637C10.0163 44.5801 9.51172 44.0462 8.82812 43.6621C8.33333 43.3887 7.8125 43.2389 7.26562 43.2129C6.72526 43.1868 6.07747 43.1738 5.32227 43.1738H5.25391V52.2754H5.32227C6.14258 52.2754 6.83268 52.2624 7.39258 52.2363C7.95898 52.2038 8.49609 52.028 9.00391 51.709C9.60286 51.3314 10.0586 50.8105 10.3711 50.1465C10.6836 49.4824 10.8398 48.6719 10.8398 47.7148ZM16.7578 55V40.459H26.5918V43.2324H20.3906V45.7812H26.1035V48.5547H20.3906V52.2266H26.5918V55H16.7578ZM41.2109 40.459L36.2109 55H32.4023L27.4023 40.459H31.1914L34.3555 50.3125L37.5195 40.459H41.2109ZM45.7812 55H42.3633V44.0332H45.7812V55ZM45.8789 42.4707H42.2656V39.8047H45.8789V42.4707ZM58.6719 55H55.2344V49.5605C55.2344 49.1178 55.2148 48.6784 55.1758 48.2422C55.1432 47.7995 55.0781 47.474 54.9805 47.2656C54.8633 47.0182 54.694 46.8424 54.4727 46.7383C54.2513 46.6276 53.9551 46.5723 53.584 46.5723C53.304 46.5723 53.0208 46.6243 52.7344 46.7285C52.4479 46.8327 52.1419 46.9987 51.8164 47.2266V55H48.3984V44.0332H51.8164V45.2441C52.3763 44.7689 52.9199 44.3978 53.4473 44.1309C53.9811 43.8639 54.5703 43.7305 55.2148 43.7305C56.3346 43.7305 57.1908 44.0853 57.7832 44.7949C58.3757 45.498 58.6719 46.5202 58.6719 47.8613V55Z" fill="white"/>
</svg>
